<svg width="422" height="89" viewBox="0 0 422 89" fill="none" xmlns="http://www.w3.org/2000/svg">
<mask id="path-1-outside-1_289_32" maskUnits="userSpaceOnUse" x="0.238281" y="18.9268" width="64" height="69" fill="black">
<rect fill="white" x="0.238281" y="18.9268" width="64" height="69"/>
<path d="M62.9626 58.4558C63.1764 58.127 63.3038 57.7515 63.3332 57.3628C63.3627 56.9741 63.2934 56.5843 63.1314 56.2283C62.587 55.117 61.8833 54.0876 61.0416 53.1712C60.3383 52.3664 59.7022 51.5075 59.1395 50.6028C59.0041 50.3736 58.8635 50.1412 58.7219 49.9074C57.7841 48.3599 56.8145 46.7597 57.0665 45.4523C57.838 41.8835 57.3801 38.165 55.7644 34.8779C50.4391 23.8108 39.9552 21.048 35.6951 20.3741C33.8167 20.0784 31.9174 19.9292 30.0149 19.9278C26.4695 19.9004 22.9404 20.3985 19.5474 21.4052C18.8478 21.6181 18.151 21.8606 17.4767 22.1257C8.68244 25.5809 2.03727 34.183 1.31672 43.0441C0.907842 47.5894 2.10599 52.1343 4.71065 55.9182C5.14842 56.5394 5.53757 57.1478 5.9139 57.7358C6.41489 58.5188 6.93291 59.3288 7.56774 60.1737C10.8096 64.4906 15.1859 73.2647 13.9555 79.7447C13.7881 80.8262 13.3875 81.8604 12.7803 82.7786C12.1732 83.6968 11.3733 84.478 10.434 85.0703C10.2391 85.1924 10.0898 85.3732 10.0086 85.5854C9.92745 85.7976 9.9187 86.0298 9.98371 86.2473C10.0487 86.4648 10.184 86.6558 10.3692 86.7917C10.5544 86.9275 10.7796 87.001 11.0111 87.001H39.7393C39.9454 87.001 40.1471 86.9428 40.3202 86.8333C40.4933 86.7238 40.6305 86.5677 40.7152 86.3838C40.7999 86.1998 40.8286 85.9959 40.7978 85.7964C40.767 85.5969 40.6781 85.4103 40.5416 85.2591C37.6552 82.0608 37.097 78.7954 37.4085 74.4893C41.7822 76.9625 46.6426 78.4983 51.6679 78.995C52.9779 79.1312 54.2941 78.8017 55.3765 78.0668C56.2315 77.481 56.8641 76.6343 57.1752 75.6591C57.6294 74.1341 57.4057 72.4403 57.2259 71.0796C57.1452 70.5611 57.0953 70.0384 57.0764 69.5143C57.1318 69.5035 57.1867 69.4933 57.2337 69.4841C57.8787 69.3638 59.22 69.1125 59.2587 67.8281C59.2555 67.3743 59.0832 66.9372 58.7741 66.5989C59.1411 66.5641 59.4928 66.4376 59.7955 66.2315C61.3087 65.1078 60.4651 63.2973 59.9074 62.0988C59.6905 61.6342 59.1839 60.5457 59.369 60.3799C59.7289 60.1235 60.1345 59.935 60.5649 59.8242L60.8148 59.7387C60.8969 59.7101 60.9831 59.6834 61.0714 59.6558C61.8274 59.4884 62.4978 59.063 62.9626 58.4558ZM61.1786 57.2973C60.9652 57.4828 60.704 57.6076 60.4233 57.658C60.3109 57.6933 60.2017 57.7276 60.0982 57.7634L59.865 57.8428C59.1538 58.0362 58.492 58.3739 57.9227 58.834C56.5898 60.0289 57.3811 61.7278 57.9593 62.9687C58.2266 63.4533 58.4126 63.9769 58.5102 64.5193C58.2437 64.547 57.9759 64.5613 57.7078 64.5623C56.8987 64.5781 55.892 64.5981 55.6761 65.5617C55.4973 66.362 56.1016 66.9321 56.6342 67.4351C56.6425 67.4428 56.6509 67.4505 56.6593 67.4586C56.3445 67.4791 56.0402 67.5772 55.7747 67.7439C55.5092 67.9106 55.2911 68.1405 55.1408 68.412C54.8141 69.1673 54.9412 70.1299 55.1027 71.3488C55.2647 72.5764 55.4487 73.9683 55.1199 75.0726C54.942 75.5999 54.5917 76.055 54.1231 76.3678C53.4565 76.8074 52.6512 76.9987 51.853 76.9072C46.9068 76.4083 42.134 74.8467 37.8753 72.3339L37.6626 72.2116C37.4608 72.098 37.2686 71.9857 37.086 71.8749C37.0688 71.8636 37.051 71.8528 37.0332 71.8426C34.7835 70.4671 34.0172 69.3178 34.0705 68.672C34.0926 68.3954 34.0019 68.1215 33.8181 67.9104C33.6343 67.6993 33.3725 67.5681 33.0901 67.5456C32.8076 67.5231 32.5276 67.6112 32.3114 67.7905C32.0952 67.9697 31.9604 68.2256 31.9366 68.5021C31.8043 70.0966 32.9582 71.7024 35.3637 73.2826C34.9267 77.7822 35.2184 81.4436 37.5643 84.905H13.8476C14.9979 83.5285 15.7608 81.8816 16.0604 80.1275C17.4153 72.9924 12.7554 63.5429 9.29272 58.9322C8.7052 58.1498 8.23084 57.4083 7.72852 56.6233C7.33963 56.0159 6.93793 55.3875 6.47325 54.7279C4.14781 51.3412 3.08087 47.2755 3.45096 43.2109C4.10954 35.1118 10.2051 27.2414 18.2746 24.0708C18.8961 23.8267 19.538 23.6031 20.1828 23.4071C23.3583 22.4667 26.6605 22.0004 29.978 22.0239H30.013C31.8016 22.0251 33.5873 22.1654 35.3533 22.4435C39.2788 23.0642 48.9363 25.6065 53.8273 35.7714C55.2582 38.6568 55.6582 41.9289 54.9631 45.0634C54.5606 47.1487 55.7926 49.1823 56.8804 50.9769C57.0178 51.2041 57.1543 51.4293 57.286 51.6519C57.9046 52.6529 58.6051 53.6032 59.3805 54.4935C60.0892 55.2598 60.6875 56.1173 61.1587 57.0424C61.1796 57.0813 61.1921 57.124 61.1955 57.1678C61.1989 57.2117 61.1932 57.2557 61.1786 57.2973Z"/>
</mask>
<path d="M62.9626 58.4558C63.1764 58.127 63.3038 57.7515 63.3332 57.3628C63.3627 56.9741 63.2934 56.5843 63.1314 56.2283C62.587 55.117 61.8833 54.0876 61.0416 53.1712C60.3383 52.3664 59.7022 51.5075 59.1395 50.6028C59.0041 50.3736 58.8635 50.1412 58.7219 49.9074C57.7841 48.3599 56.8145 46.7597 57.0665 45.4523C57.838 41.8835 57.3801 38.165 55.7644 34.8779C50.4391 23.8108 39.9552 21.048 35.6951 20.3741C33.8167 20.0784 31.9174 19.9292 30.0149 19.9278C26.4695 19.9004 22.9404 20.3985 19.5474 21.4052C18.8478 21.6181 18.151 21.8606 17.4767 22.1257C8.68244 25.5809 2.03727 34.183 1.31672 43.0441C0.907842 47.5894 2.10599 52.1343 4.71065 55.9182C5.14842 56.5394 5.53757 57.1478 5.9139 57.7358C6.41489 58.5188 6.93291 59.3288 7.56774 60.1737C10.8096 64.4906 15.1859 73.2647 13.9555 79.7447C13.7881 80.8262 13.3875 81.8604 12.7803 82.7786C12.1732 83.6968 11.3733 84.478 10.434 85.0703C10.2391 85.1924 10.0898 85.3732 10.0086 85.5854C9.92745 85.7976 9.9187 86.0298 9.98371 86.2473C10.0487 86.4648 10.184 86.6558 10.3692 86.7917C10.5544 86.9275 10.7796 87.001 11.0111 87.001H39.7393C39.9454 87.001 40.1471 86.9428 40.3202 86.8333C40.4933 86.7238 40.6305 86.5677 40.7152 86.3838C40.7999 86.1998 40.8286 85.9959 40.7978 85.7964C40.767 85.5969 40.6781 85.4103 40.5416 85.2591C37.6552 82.0608 37.097 78.7954 37.4085 74.4893C41.7822 76.9625 46.6426 78.4983 51.6679 78.995C52.9779 79.1312 54.2941 78.8017 55.3765 78.0668C56.2315 77.481 56.8641 76.6343 57.1752 75.6591C57.6294 74.1341 57.4057 72.4403 57.2259 71.0796C57.1452 70.5611 57.0953 70.0384 57.0764 69.5143C57.1318 69.5035 57.1867 69.4933 57.2337 69.4841C57.8787 69.3638 59.22 69.1125 59.2587 67.8281C59.2555 67.3743 59.0832 66.9372 58.7741 66.5989C59.1411 66.5641 59.4928 66.4376 59.7955 66.2315C61.3087 65.1078 60.4651 63.2973 59.9074 62.0988C59.6905 61.6342 59.1839 60.5457 59.369 60.3799C59.7289 60.1235 60.1345 59.935 60.5649 59.8242L60.8148 59.7387C60.8969 59.7101 60.9831 59.6834 61.0714 59.6558C61.8274 59.4884 62.4978 59.063 62.9626 58.4558ZM61.1786 57.2973C60.9652 57.4828 60.704 57.6076 60.4233 57.658C60.3109 57.6933 60.2017 57.7276 60.0982 57.7634L59.865 57.8428C59.1538 58.0362 58.492 58.3739 57.9227 58.834C56.5898 60.0289 57.3811 61.7278 57.9593 62.9687C58.2266 63.4533 58.4126 63.9769 58.5102 64.5193C58.2437 64.547 57.9759 64.5613 57.7078 64.5623C56.8987 64.5781 55.892 64.5981 55.6761 65.5617C55.4973 66.362 56.1016 66.9321 56.6342 67.4351C56.6425 67.4428 56.6509 67.4505 56.6593 67.4586C56.3445 67.4791 56.0402 67.5772 55.7747 67.7439C55.5092 67.9106 55.2911 68.1405 55.1408 68.412C54.8141 69.1673 54.9412 70.1299 55.1027 71.3488C55.2647 72.5764 55.4487 73.9683 55.1199 75.0726C54.942 75.5999 54.5917 76.055 54.1231 76.3678C53.4565 76.8074 52.6512 76.9987 51.853 76.9072C46.9068 76.4083 42.134 74.8467 37.8753 72.3339L37.6626 72.2116C37.4608 72.098 37.2686 71.9857 37.086 71.8749C37.0688 71.8636 37.051 71.8528 37.0332 71.8426C34.7835 70.4671 34.0172 69.3178 34.0705 68.672C34.0926 68.3954 34.0019 68.1215 33.8181 67.9104C33.6343 67.6993 33.3725 67.5681 33.0901 67.5456C32.8076 67.5231 32.5276 67.6112 32.3114 67.7905C32.0952 67.9697 31.9604 68.2256 31.9366 68.5021C31.8043 70.0966 32.9582 71.7024 35.3637 73.2826C34.9267 77.7822 35.2184 81.4436 37.5643 84.905H13.8476C14.9979 83.5285 15.7608 81.8816 16.0604 80.1275C17.4153 72.9924 12.7554 63.5429 9.29272 58.9322C8.7052 58.1498 8.23084 57.4083 7.72852 56.6233C7.33963 56.0159 6.93793 55.3875 6.47325 54.7279C4.14781 51.3412 3.08087 47.2755 3.45096 43.2109C4.10954 35.1118 10.2051 27.2414 18.2746 24.0708C18.8961 23.8267 19.538 23.6031 20.1828 23.4071C23.3583 22.4667 26.6605 22.0004 29.978 22.0239H30.013C31.8016 22.0251 33.5873 22.1654 35.3533 22.4435C39.2788 23.0642 48.9363 25.6065 53.8273 35.7714C55.2582 38.6568 55.6582 41.9289 54.9631 45.0634C54.5606 47.1487 55.7926 49.1823 56.8804 50.9769C57.0178 51.2041 57.1543 51.4293 57.286 51.6519C57.9046 52.6529 58.6051 53.6032 59.3805 54.4935C60.0892 55.2598 60.6875 56.1173 61.1587 57.0424C61.1796 57.0813 61.1921 57.124 61.1955 57.1678C61.1989 57.2117 61.1932 57.2557 61.1786 57.2973Z" fill="#365466"/>
<path d="M62.9626 58.4558C63.1764 58.127 63.3038 57.7515 63.3332 57.3628C63.3627 56.9741 63.2934 56.5843 63.1314 56.2283C62.587 55.117 61.8833 54.0876 61.0416 53.1712C60.3383 52.3664 59.7022 51.5075 59.1395 50.6028C59.0041 50.3736 58.8635 50.1412 58.7219 49.9074C57.7841 48.3599 56.8145 46.7597 57.0665 45.4523C57.838 41.8835 57.3801 38.165 55.7644 34.8779C50.4391 23.8108 39.9552 21.048 35.6951 20.3741C33.8167 20.0784 31.9174 19.9292 30.0149 19.9278C26.4695 19.9004 22.9404 20.3985 19.5474 21.4052C18.8478 21.6181 18.151 21.8606 17.4767 22.1257C8.68244 25.5809 2.03727 34.183 1.31672 43.0441C0.907842 47.5894 2.10599 52.1343 4.71065 55.9182C5.14842 56.5394 5.53757 57.1478 5.9139 57.7358C6.41489 58.5188 6.93291 59.3288 7.56774 60.1737C10.8096 64.4906 15.1859 73.2647 13.9555 79.7447C13.7881 80.8262 13.3875 81.8604 12.7803 82.7786C12.1732 83.6968 11.3733 84.478 10.434 85.0703C10.2391 85.1924 10.0898 85.3732 10.0086 85.5854C9.92745 85.7976 9.9187 86.0298 9.98371 86.2473C10.0487 86.4648 10.184 86.6558 10.3692 86.7917C10.5544 86.9275 10.7796 87.001 11.0111 87.001H39.7393C39.9454 87.001 40.1471 86.9428 40.3202 86.8333C40.4933 86.7238 40.6305 86.5677 40.7152 86.3838C40.7999 86.1998 40.8286 85.9959 40.7978 85.7964C40.767 85.5969 40.6781 85.4103 40.5416 85.2591C37.6552 82.0608 37.097 78.7954 37.4085 74.4893C41.7822 76.9625 46.6426 78.4983 51.6679 78.995C52.9779 79.1312 54.2941 78.8017 55.3765 78.0668C56.2315 77.481 56.8641 76.6343 57.1752 75.6591C57.6294 74.1341 57.4057 72.4403 57.2259 71.0796C57.1452 70.5611 57.0953 70.0384 57.0764 69.5143C57.1318 69.5035 57.1867 69.4933 57.2337 69.4841C57.8787 69.3638 59.22 69.1125 59.2587 67.8281C59.2555 67.3743 59.0832 66.9372 58.7741 66.5989C59.1411 66.5641 59.4928 66.4376 59.7955 66.2315C61.3087 65.1078 60.4651 63.2973 59.9074 62.0988C59.6905 61.6342 59.1839 60.5457 59.369 60.3799C59.7289 60.1235 60.1345 59.935 60.5649 59.8242L60.8148 59.7387C60.8969 59.7101 60.9831 59.6834 61.0714 59.6558C61.8274 59.4884 62.4978 59.063 62.9626 58.4558ZM61.1786 57.2973C60.9652 57.4828 60.704 57.6076 60.4233 57.658C60.3109 57.6933 60.2017 57.7276 60.0982 57.7634L59.865 57.8428C59.1538 58.0362 58.492 58.3739 57.9227 58.834C56.5898 60.0289 57.3811 61.7278 57.9593 62.9687C58.2266 63.4533 58.4126 63.9769 58.5102 64.5193C58.2437 64.547 57.9759 64.5613 57.7078 64.5623C56.8987 64.5781 55.892 64.5981 55.6761 65.5617C55.4973 66.362 56.1016 66.9321 56.6342 67.4351C56.6425 67.4428 56.6509 67.4505 56.6593 67.4586C56.3445 67.4791 56.0402 67.5772 55.7747 67.7439C55.5092 67.9106 55.2911 68.1405 55.1408 68.412C54.8141 69.1673 54.9412 70.1299 55.1027 71.3488C55.2647 72.5764 55.4487 73.9683 55.1199 75.0726C54.942 75.5999 54.5917 76.055 54.1231 76.3678C53.4565 76.8074 52.6512 76.9987 51.853 76.9072C46.9068 76.4083 42.134 74.8467 37.8753 72.3339L37.6626 72.2116C37.4608 72.098 37.2686 71.9857 37.086 71.8749C37.0688 71.8636 37.051 71.8528 37.0332 71.8426C34.7835 70.4671 34.0172 69.3178 34.0705 68.672C34.0926 68.3954 34.0019 68.1215 33.8181 67.9104C33.6343 67.6993 33.3725 67.5681 33.0901 67.5456C32.8076 67.5231 32.5276 67.6112 32.3114 67.7905C32.0952 67.9697 31.9604 68.2256 31.9366 68.5021C31.8043 70.0966 32.9582 71.7024 35.3637 73.2826C34.9267 77.7822 35.2184 81.4436 37.5643 84.905H13.8476C14.9979 83.5285 15.7608 81.8816 16.0604 80.1275C17.4153 72.9924 12.7554 63.5429 9.29272 58.9322C8.7052 58.1498 8.23084 57.4083 7.72852 56.6233C7.33963 56.0159 6.93793 55.3875 6.47325 54.7279C4.14781 51.3412 3.08087 47.2755 3.45096 43.2109C4.10954 35.1118 10.2051 27.2414 18.2746 24.0708C18.8961 23.8267 19.538 23.6031 20.1828 23.4071C23.3583 22.4667 26.6605 22.0004 29.978 22.0239H30.013C31.8016 22.0251 33.5873 22.1654 35.3533 22.4435C39.2788 23.0642 48.9363 25.6065 53.8273 35.7714C55.2582 38.6568 55.6582 41.9289 54.9631 45.0634C54.5606 47.1487 55.7926 49.1823 56.8804 50.9769C57.0178 51.2041 57.1543 51.4293 57.286 51.6519C57.9046 52.6529 58.6051 53.6032 59.3805 54.4935C60.0892 55.2598 60.6875 56.1173 61.1587 57.0424C61.1796 57.0813 61.1921 57.124 61.1955 57.1678C61.1989 57.2117 61.1932 57.2557 61.1786 57.2973Z" stroke="#365466" stroke-width="1.3" mask="url(#path-1-outside-1_289_32)"/>
<mask id="path-2-outside-2_289_32" maskUnits="userSpaceOnUse" x="10.333" y="28.5156" width="39" height="35" fill="black">
<rect fill="white" x="10.333" y="28.5156" width="39" height="35"/>
<path d="M44.9371 38.8046C45.2439 37.9875 45.3072 37.0988 45.1192 36.2464C44.9312 35.394 44.5 34.6146 43.878 34.0029C43.2561 33.3911 42.47 32.9733 41.6154 32.8002C40.7608 32.6271 39.8744 32.7062 39.0639 33.0279C38.8427 32.3794 38.4769 31.7899 37.9944 31.304C37.5119 30.8181 36.9252 30.4485 36.2788 30.2233C35.6325 29.9981 34.9434 29.9231 34.2638 30.004C33.5842 30.085 32.9319 30.3198 32.3564 30.6906C31.526 29.937 30.4461 29.5184 29.3254 29.5156C28.0512 29.5368 26.8322 30.0398 25.9131 30.9236C25.3201 30.6441 24.6745 30.4939 24.0191 30.4829C23.3637 30.472 22.7134 30.6005 22.1114 30.86C21.0926 31.3276 20.2836 32.1574 19.8415 33.1885C19.1414 33.0877 18.4274 33.1531 17.7571 33.3795C17.0869 33.606 16.4792 33.987 15.9833 34.492C15.4873 34.997 15.1169 35.6116 14.902 36.2864C14.6872 36.9611 14.6338 37.6769 14.7463 38.3761C14.4779 38.4423 14.2164 38.5337 13.9653 38.6492C13.1617 39.0169 12.4839 39.613 12.0161 40.3634C11.5484 41.1138 11.3114 41.9853 11.3346 42.8696C11.3578 43.7538 11.6402 44.6117 12.1466 45.3364C12.6531 46.0612 13.3613 46.6209 14.183 46.9458C14.116 47.1188 14.0483 47.2946 13.971 47.469C13.7082 48.0474 13.5944 48.6825 13.64 49.3163C13.6856 49.9501 13.8891 50.5623 14.232 51.097C14.5778 51.6034 15.0352 52.0234 15.569 52.3244C16.1028 52.6255 16.6986 52.7997 17.3103 52.8334C18.4146 54.5584 19.2812 57.44 17.8874 58.882C17.8087 58.963 17.7467 59.0587 17.705 59.1637C17.6633 59.2688 17.6427 59.381 17.6443 59.494C17.646 59.607 17.67 59.7185 17.7148 59.8222C17.7596 59.9259 17.8245 60.0198 17.9056 60.0984C17.9867 60.177 18.0825 60.2387 18.1875 60.2802C18.2925 60.3216 18.4047 60.3419 18.5175 60.3399C18.6304 60.3379 18.7417 60.3136 18.8452 60.2684C18.9486 60.2233 19.0422 60.1581 19.1205 60.0767C21.4282 57.6897 19.9672 53.577 18.4944 51.5225L18.4898 51.5158C18.4852 51.5094 18.4806 51.5019 18.4761 51.4955C18.464 51.4789 18.449 51.466 18.436 51.4504C18.4164 51.4258 18.3955 51.4023 18.3734 51.38C18.3532 51.3606 18.3311 51.3443 18.3094 51.3272C18.2876 51.31 18.2664 51.2924 18.243 51.2774C18.2188 51.2626 18.1938 51.249 18.1683 51.2368C18.1441 51.2244 18.1205 51.2117 18.0951 51.2016C18.0674 51.1914 18.0393 51.1827 18.0108 51.1754C17.986 51.1685 17.9618 51.1607 17.9361 51.1559C17.9016 51.1503 17.8669 51.1468 17.832 51.1454C17.8148 51.1444 17.7985 51.1403 17.781 51.1403C17.375 51.1699 16.9682 51.0954 16.599 50.9239C16.2298 50.7523 15.9103 50.4894 15.6708 50.16C15.4843 49.8651 15.3746 49.5281 15.3517 49.1798C15.3287 48.8315 15.3934 48.483 15.5396 48.1662C15.6306 47.9611 15.7108 47.7547 15.7893 47.5517C15.9126 47.1389 16.1151 46.7542 16.3856 46.4191C16.5454 46.2573 16.6347 46.0387 16.6338 45.8111C16.6328 45.5835 16.5417 45.3656 16.3805 45.2052C16.2193 45.0448 16.001 44.9549 15.7737 44.9554C15.5464 44.9559 15.3286 45.0466 15.168 45.2077C15.1038 45.2724 15.0438 45.3386 14.9879 45.4063C14.4518 45.2353 13.9799 44.9057 13.6346 44.4609C13.2892 44.0162 13.0865 43.4771 13.0531 42.9148C13.0197 42.3524 13.1572 41.7931 13.4475 41.3106C13.7378 40.828 14.1673 40.4448 14.6795 40.2113C15.0435 40.0434 15.4405 39.9592 15.8413 39.9647C15.9833 39.9613 16.1226 39.9246 16.248 39.8576C16.3733 39.7906 16.4812 39.6951 16.563 39.5788C16.6418 39.4595 16.6895 39.3223 16.7018 39.1798C16.7142 39.0374 16.6908 38.894 16.6338 38.7629C16.4188 38.2637 16.3539 37.7125 16.447 37.1769C16.5402 36.6413 16.7873 36.1446 17.1582 35.7475C17.529 35.3504 18.0075 35.0701 18.535 34.9412C19.0625 34.8122 19.6161 34.84 20.1281 35.0212C20.2433 35.0619 20.3659 35.0775 20.4876 35.067C20.6094 35.0564 20.7275 35.02 20.834 34.96C20.9405 34.9001 21.033 34.8181 21.1053 34.7195C21.1776 34.6209 21.2281 34.5079 21.2533 34.3882C21.3409 33.9598 21.5289 33.5584 21.8017 33.2169C22.0745 32.8754 22.4244 32.6036 22.8226 32.4238C23.2776 32.2365 23.7718 32.1648 24.2612 32.2151C24.7506 32.2654 25.22 32.4361 25.6275 32.712C25.8189 32.8352 26.0513 32.8773 26.2737 32.829C26.4961 32.7808 26.6902 32.646 26.8134 32.4544C26.8183 32.4469 26.8208 32.4387 26.8253 32.4311C26.8506 32.4105 26.8747 32.3885 26.8974 32.3651C27.204 32.0211 27.5774 31.7433 27.9949 31.5488C28.4124 31.3543 28.8651 31.2471 29.3254 31.2338C29.7628 31.2323 30.1944 31.3344 30.5848 31.5318C30.9752 31.7292 31.3134 32.0164 31.5718 32.3697C31.6445 32.468 31.7373 32.5495 31.844 32.609C31.9507 32.6685 32.0688 32.7044 32.1905 32.7145C32.3122 32.7246 32.4347 32.7086 32.5497 32.6675C32.6647 32.6264 32.7696 32.5612 32.8575 32.4762C33.2455 32.1 33.7344 31.8448 34.2647 31.7417C34.795 31.6386 35.3438 31.6921 35.8443 31.8956C36.3448 32.0991 36.7754 32.4439 37.0837 32.8881C37.3919 33.3322 37.5646 33.8564 37.5807 34.397C37.5851 34.5569 37.6339 34.7123 37.7218 34.8459C37.8097 34.9794 37.9331 35.0858 38.078 35.1529C38.223 35.2201 38.3838 35.2454 38.5424 35.2259C38.701 35.2065 38.8509 35.1432 38.9755 35.043C39.4698 34.6432 40.0867 34.4263 40.7222 34.4289C41.2363 34.4288 41.7404 34.5711 42.1788 34.8399C42.6172 35.1087 42.9729 35.4936 43.2065 35.9521C43.4401 36.4106 43.5425 36.9248 43.5025 37.4379C43.4625 37.9511 43.2815 38.4431 42.9797 38.8598C42.9688 38.875 42.9621 38.8918 42.9523 38.9074C42.9385 38.9293 42.9255 38.9513 42.9137 38.9745C42.9 39.0017 42.8878 39.0295 42.8771 39.058C42.8679 39.0822 42.8595 39.1066 42.8525 39.1319C42.8442 39.1621 42.8377 39.1927 42.8328 39.2236C42.8304 39.2385 42.8251 39.2523 42.8234 39.2675C42.8222 39.2786 42.8239 39.2893 42.8231 39.3003C42.8213 39.3301 42.821 39.3598 42.8223 39.3896C42.8232 39.4175 42.8242 39.4451 42.8278 39.4724C42.8312 39.4986 42.837 39.5241 42.8428 39.5499C42.8487 39.5786 42.8562 39.6069 42.8651 39.6348C42.8733 39.6594 42.884 39.6829 42.8944 39.7068C42.9056 39.7333 42.9181 39.7591 42.9318 39.7843C42.945 39.8077 42.9605 39.8296 42.976 39.8519C42.992 39.8754 43.0091 39.8982 43.0274 39.92C43.0443 39.9398 43.0631 39.9581 43.0822 39.9765C43.104 39.9981 43.1271 40.0185 43.1512 40.0376C43.1598 40.0443 43.1664 40.0526 43.1754 40.0591C43.1829 40.0645 43.1918 40.066 43.1994 40.0711C43.2659 40.1176 43.3387 40.1542 43.4156 40.1798C43.4189 40.1809 43.4224 40.181 43.4257 40.182C43.4768 40.198 43.5294 40.2093 43.5826 40.2155C44.1513 40.2793 44.6866 40.5168 45.1158 40.8957C45.545 41.2745 45.8474 41.7765 45.9819 42.3333C46.1163 42.8902 46.0764 43.475 45.8675 44.0083C45.6585 44.5417 45.2907 44.9977 44.814 45.3146C44.4804 45.5368 44.1021 45.6828 43.7058 45.7421C43.5646 45.7636 43.431 45.8202 43.3171 45.9066C43.2033 45.993 43.1128 46.1066 43.0539 46.2369C42.995 46.3672 42.9696 46.5101 42.9799 46.6528C42.9902 46.7955 43.0359 46.9333 43.1129 47.0537C43.404 47.5127 43.555 48.0468 43.5475 48.5904C43.5399 49.1341 43.3741 49.6637 43.0704 50.1144C42.7667 50.5651 42.3383 50.9174 41.8376 51.128C41.3369 51.3386 40.7858 51.3984 40.2517 51.3001C40.1315 51.2781 40.0079 51.2822 39.8894 51.3119C39.7708 51.3416 39.66 51.3963 39.5643 51.4724C39.4685 51.5484 39.3901 51.644 39.3342 51.7528C39.2783 51.8616 39.2463 51.9811 39.2403 52.1033C39.2216 52.5402 39.0994 52.9664 38.8838 53.3468C38.6683 53.7271 38.3655 54.0507 38.0005 54.2909C37.3556 54.6724 36.5938 54.8052 35.858 54.6642C35.1223 54.5232 34.4633 54.1181 34.0048 53.5251C34.0024 53.3053 33.9158 53.0949 33.7628 52.9372C33.6099 52.7796 33.4022 52.6868 33.1829 52.6781C32.9635 52.6694 32.7492 52.7455 32.5843 52.8905C32.4193 53.0355 32.3164 53.2385 32.2967 53.4574C32.2584 53.8431 32.14 54.2166 31.9491 54.5539C31.7582 54.8911 31.4991 55.1848 31.1882 55.4159C30.8343 55.6918 30.4293 55.8949 29.9967 56.0134C29.564 56.1319 29.1122 56.1635 28.6672 56.1064C28.235 56.0387 27.8249 55.8696 27.4704 55.6129C27.1159 55.3562 26.8271 55.0192 26.6276 54.6294C26.5713 54.521 26.4926 54.4258 26.3966 54.3503C26.3006 54.2747 26.1896 54.2206 26.0711 54.1914C25.9525 54.1623 25.8292 54.1588 25.7092 54.1813C25.5892 54.2037 25.4753 54.2515 25.3753 54.3215C24.7826 54.7373 24.0517 54.9057 23.3371 54.7913C23.3118 54.7871 23.2871 54.7885 23.262 54.7865C23.2417 54.7851 23.2223 54.7804 23.2016 54.7804C23.1969 54.7804 23.1927 54.7817 23.188 54.7818C23.1444 54.7827 23.1009 54.7871 23.0579 54.7949C23.046 54.7969 23.0336 54.7974 23.0219 54.8C22.9758 54.8101 22.9307 54.8241 22.887 54.8419C22.8793 54.845 22.8711 54.8469 22.8634 54.8502C22.8203 54.8692 22.7788 54.8917 22.7394 54.9176C22.7325 54.922 22.7251 54.9254 22.7184 54.93C22.6822 54.9555 22.648 54.9837 22.6161 55.0145C22.6079 55.0222 22.5988 55.0288 22.5908 55.0369C22.564 55.0653 22.5391 55.0955 22.5163 55.1273C22.5061 55.1409 22.4948 55.1535 22.4854 55.1678C22.4683 55.1954 22.4528 55.224 22.4389 55.2534C22.4278 55.2754 22.4157 55.2966 22.4064 55.3196C22.3964 55.3447 22.3898 55.3715 22.3821 55.3979C22.3728 55.4267 22.3651 55.4561 22.3589 55.4858C22.3578 55.4921 22.3552 55.4977 22.3541 55.504C22.3504 55.5274 22.3519 55.5502 22.3501 55.5734C22.3484 55.5956 22.3435 55.6169 22.3435 55.6395C22.3435 58.0812 22.4253 59.6663 21.1108 60.8035C20.9392 60.9527 20.8337 61.1639 20.8175 61.3908C20.8012 61.6177 20.8755 61.8418 21.024 62.0139C21.1726 62.1861 21.3833 62.2922 21.6099 62.3091C21.8365 62.3259 22.0605 62.2521 22.2328 62.1039C23.8886 60.6711 23.8897 58.6921 24.0313 56.5261C24.5678 56.5 25.0952 56.3773 25.5883 56.1638C26.0102 56.6933 26.546 57.1207 27.1557 57.4142C27.7655 57.7077 28.4335 57.8597 29.11 57.8589C30.2442 57.8502 31.3441 57.4686 32.2405 56.7729C32.7304 56.395 33.1408 55.9237 33.448 55.3863C34.3151 56.0684 35.3851 56.4406 36.4879 56.4436C37.3612 56.451 38.2173 56.2003 38.9491 55.7229C39.8818 55.1005 40.5501 54.153 40.824 53.0648C41.6892 53.0531 42.5325 52.7909 43.252 52.3097C44.0722 51.7604 44.6905 50.9577 45.0128 50.024C45.3351 49.0903 45.3437 48.0767 45.0373 47.1376C45.2918 47.0297 45.5356 46.8982 45.7655 46.7446C46.4503 46.2898 46.9976 45.656 47.348 44.9118C47.6984 44.1677 47.8385 43.3417 47.7531 42.5234C47.6677 41.7052 47.3601 40.926 46.8637 40.2704C46.3673 39.6148 45.7009 39.1079 44.9371 38.8046Z"/>
</mask>
<path d="M44.9371 38.8046C45.2439 37.9875 45.3072 37.0988 45.1192 36.2464C44.9312 35.394 44.5 34.6146 43.878 34.0029C43.2561 33.3911 42.47 32.9733 41.6154 32.8002C40.7608 32.6271 39.8744 32.7062 39.0639 33.0279C38.8427 32.3794 38.4769 31.7899 37.9944 31.304C37.5119 30.8181 36.9252 30.4485 36.2788 30.2233C35.6325 29.9981 34.9434 29.9231 34.2638 30.004C33.5842 30.085 32.9319 30.3198 32.3564 30.6906C31.526 29.937 30.4461 29.5184 29.3254 29.5156C28.0512 29.5368 26.8322 30.0398 25.9131 30.9236C25.3201 30.6441 24.6745 30.4939 24.0191 30.4829C23.3637 30.472 22.7134 30.6005 22.1114 30.86C21.0926 31.3276 20.2836 32.1574 19.8415 33.1885C19.1414 33.0877 18.4274 33.1531 17.7571 33.3795C17.0869 33.606 16.4792 33.987 15.9833 34.492C15.4873 34.997 15.1169 35.6116 14.902 36.2864C14.6872 36.9611 14.6338 37.6769 14.7463 38.3761C14.4779 38.4423 14.2164 38.5337 13.9653 38.6492C13.1617 39.0169 12.4839 39.613 12.0161 40.3634C11.5484 41.1138 11.3114 41.9853 11.3346 42.8696C11.3578 43.7538 11.6402 44.6117 12.1466 45.3364C12.6531 46.0612 13.3613 46.6209 14.183 46.9458C14.116 47.1188 14.0483 47.2946 13.971 47.469C13.7082 48.0474 13.5944 48.6825 13.64 49.3163C13.6856 49.9501 13.8891 50.5623 14.232 51.097C14.5778 51.6034 15.0352 52.0234 15.569 52.3244C16.1028 52.6255 16.6986 52.7997 17.3103 52.8334C18.4146 54.5584 19.2812 57.44 17.8874 58.882C17.8087 58.963 17.7467 59.0587 17.705 59.1637C17.6633 59.2688 17.6427 59.381 17.6443 59.494C17.646 59.607 17.67 59.7185 17.7148 59.8222C17.7596 59.9259 17.8245 60.0198 17.9056 60.0984C17.9867 60.177 18.0825 60.2387 18.1875 60.2802C18.2925 60.3216 18.4047 60.3419 18.5175 60.3399C18.6304 60.3379 18.7417 60.3136 18.8452 60.2684C18.9486 60.2233 19.0422 60.1581 19.1205 60.0767C21.4282 57.6897 19.9672 53.577 18.4944 51.5225L18.4898 51.5158C18.4852 51.5094 18.4806 51.5019 18.4761 51.4955C18.464 51.4789 18.449 51.466 18.436 51.4504C18.4164 51.4258 18.3955 51.4023 18.3734 51.38C18.3532 51.3606 18.3311 51.3443 18.3094 51.3272C18.2876 51.31 18.2664 51.2924 18.243 51.2774C18.2188 51.2626 18.1938 51.249 18.1683 51.2368C18.1441 51.2244 18.1205 51.2117 18.0951 51.2016C18.0674 51.1914 18.0393 51.1827 18.0108 51.1754C17.986 51.1685 17.9618 51.1607 17.9361 51.1559C17.9016 51.1503 17.8669 51.1468 17.832 51.1454C17.8148 51.1444 17.7985 51.1403 17.781 51.1403C17.375 51.1699 16.9682 51.0954 16.599 50.9239C16.2298 50.7523 15.9103 50.4894 15.6708 50.16C15.4843 49.8651 15.3746 49.5281 15.3517 49.1798C15.3287 48.8315 15.3934 48.483 15.5396 48.1662C15.6306 47.9611 15.7108 47.7547 15.7893 47.5517C15.9126 47.1389 16.1151 46.7542 16.3856 46.4191C16.5454 46.2573 16.6347 46.0387 16.6338 45.8111C16.6328 45.5835 16.5417 45.3656 16.3805 45.2052C16.2193 45.0448 16.001 44.9549 15.7737 44.9554C15.5464 44.9559 15.3286 45.0466 15.168 45.2077C15.1038 45.2724 15.0438 45.3386 14.9879 45.4063C14.4518 45.2353 13.9799 44.9057 13.6346 44.4609C13.2892 44.0162 13.0865 43.4771 13.0531 42.9148C13.0197 42.3524 13.1572 41.7931 13.4475 41.3106C13.7378 40.828 14.1673 40.4448 14.6795 40.2113C15.0435 40.0434 15.4405 39.9592 15.8413 39.9647C15.9833 39.9613 16.1226 39.9246 16.248 39.8576C16.3733 39.7906 16.4812 39.6951 16.563 39.5788C16.6418 39.4595 16.6895 39.3223 16.7018 39.1798C16.7142 39.0374 16.6908 38.894 16.6338 38.7629C16.4188 38.2637 16.3539 37.7125 16.447 37.1769C16.5402 36.6413 16.7873 36.1446 17.1582 35.7475C17.529 35.3504 18.0075 35.0701 18.535 34.9412C19.0625 34.8122 19.6161 34.84 20.1281 35.0212C20.2433 35.0619 20.3659 35.0775 20.4876 35.067C20.6094 35.0564 20.7275 35.02 20.834 34.96C20.9405 34.9001 21.033 34.8181 21.1053 34.7195C21.1776 34.6209 21.2281 34.5079 21.2533 34.3882C21.3409 33.9598 21.5289 33.5584 21.8017 33.2169C22.0745 32.8754 22.4244 32.6036 22.8226 32.4238C23.2776 32.2365 23.7718 32.1648 24.2612 32.2151C24.7506 32.2654 25.22 32.4361 25.6275 32.712C25.8189 32.8352 26.0513 32.8773 26.2737 32.829C26.4961 32.7808 26.6902 32.646 26.8134 32.4544C26.8183 32.4469 26.8208 32.4387 26.8253 32.4311C26.8506 32.4105 26.8747 32.3885 26.8974 32.3651C27.204 32.0211 27.5774 31.7433 27.9949 31.5488C28.4124 31.3543 28.8651 31.2471 29.3254 31.2338C29.7628 31.2323 30.1944 31.3344 30.5848 31.5318C30.9752 31.7292 31.3134 32.0164 31.5718 32.3697C31.6445 32.468 31.7373 32.5495 31.844 32.609C31.9507 32.6685 32.0688 32.7044 32.1905 32.7145C32.3122 32.7246 32.4347 32.7086 32.5497 32.6675C32.6647 32.6264 32.7696 32.5612 32.8575 32.4762C33.2455 32.1 33.7344 31.8448 34.2647 31.7417C34.795 31.6386 35.3438 31.6921 35.8443 31.8956C36.3448 32.0991 36.7754 32.4439 37.0837 32.8881C37.3919 33.3322 37.5646 33.8564 37.5807 34.397C37.5851 34.5569 37.6339 34.7123 37.7218 34.8459C37.8097 34.9794 37.9331 35.0858 38.078 35.1529C38.223 35.2201 38.3838 35.2454 38.5424 35.2259C38.701 35.2065 38.8509 35.1432 38.9755 35.043C39.4698 34.6432 40.0867 34.4263 40.7222 34.4289C41.2363 34.4288 41.7404 34.5711 42.1788 34.8399C42.6172 35.1087 42.9729 35.4936 43.2065 35.9521C43.4401 36.4106 43.5425 36.9248 43.5025 37.4379C43.4625 37.9511 43.2815 38.4431 42.9797 38.8598C42.9688 38.875 42.9621 38.8918 42.9523 38.9074C42.9385 38.9293 42.9255 38.9513 42.9137 38.9745C42.9 39.0017 42.8878 39.0295 42.8771 39.058C42.8679 39.0822 42.8595 39.1066 42.8525 39.1319C42.8442 39.1621 42.8377 39.1927 42.8328 39.2236C42.8304 39.2385 42.8251 39.2523 42.8234 39.2675C42.8222 39.2786 42.8239 39.2893 42.8231 39.3003C42.8213 39.3301 42.821 39.3598 42.8223 39.3896C42.8232 39.4175 42.8242 39.4451 42.8278 39.4724C42.8312 39.4986 42.837 39.5241 42.8428 39.5499C42.8487 39.5786 42.8562 39.6069 42.8651 39.6348C42.8733 39.6594 42.884 39.6829 42.8944 39.7068C42.9056 39.7333 42.9181 39.7591 42.9318 39.7843C42.945 39.8077 42.9605 39.8296 42.976 39.8519C42.992 39.8754 43.0091 39.8982 43.0274 39.92C43.0443 39.9398 43.0631 39.9581 43.0822 39.9765C43.104 39.9981 43.1271 40.0185 43.1512 40.0376C43.1598 40.0443 43.1664 40.0526 43.1754 40.0591C43.1829 40.0645 43.1918 40.066 43.1994 40.0711C43.2659 40.1176 43.3387 40.1542 43.4156 40.1798C43.4189 40.1809 43.4224 40.181 43.4257 40.182C43.4768 40.198 43.5294 40.2093 43.5826 40.2155C44.1513 40.2793 44.6866 40.5168 45.1158 40.8957C45.545 41.2745 45.8474 41.7765 45.9819 42.3333C46.1163 42.8902 46.0764 43.475 45.8675 44.0083C45.6585 44.5417 45.2907 44.9977 44.814 45.3146C44.4804 45.5368 44.1021 45.6828 43.7058 45.7421C43.5646 45.7636 43.431 45.8202 43.3171 45.9066C43.2033 45.993 43.1128 46.1066 43.0539 46.2369C42.995 46.3672 42.9696 46.5101 42.9799 46.6528C42.9902 46.7955 43.0359 46.9333 43.1129 47.0537C43.404 47.5127 43.555 48.0468 43.5475 48.5904C43.5399 49.1341 43.3741 49.6637 43.0704 50.1144C42.7667 50.5651 42.3383 50.9174 41.8376 51.128C41.3369 51.3386 40.7858 51.3984 40.2517 51.3001C40.1315 51.2781 40.0079 51.2822 39.8894 51.3119C39.7708 51.3416 39.66 51.3963 39.5643 51.4724C39.4685 51.5484 39.3901 51.644 39.3342 51.7528C39.2783 51.8616 39.2463 51.9811 39.2403 52.1033C39.2216 52.5402 39.0994 52.9664 38.8838 53.3468C38.6683 53.7271 38.3655 54.0507 38.0005 54.2909C37.3556 54.6724 36.5938 54.8052 35.858 54.6642C35.1223 54.5232 34.4633 54.1181 34.0048 53.5251C34.0024 53.3053 33.9158 53.0949 33.7628 52.9372C33.6099 52.7796 33.4022 52.6868 33.1829 52.6781C32.9635 52.6694 32.7492 52.7455 32.5843 52.8905C32.4193 53.0355 32.3164 53.2385 32.2967 53.4574C32.2584 53.8431 32.14 54.2166 31.9491 54.5539C31.7582 54.8911 31.4991 55.1848 31.1882 55.4159C30.8343 55.6918 30.4293 55.8949 29.9967 56.0134C29.564 56.1319 29.1122 56.1635 28.6672 56.1064C28.235 56.0387 27.8249 55.8696 27.4704 55.6129C27.1159 55.3562 26.8271 55.0192 26.6276 54.6294C26.5713 54.521 26.4926 54.4258 26.3966 54.3503C26.3006 54.2747 26.1896 54.2206 26.0711 54.1914C25.9525 54.1623 25.8292 54.1588 25.7092 54.1813C25.5892 54.2037 25.4753 54.2515 25.3753 54.3215C24.7826 54.7373 24.0517 54.9057 23.3371 54.7913C23.3118 54.7871 23.2871 54.7885 23.262 54.7865C23.2417 54.7851 23.2223 54.7804 23.2016 54.7804C23.1969 54.7804 23.1927 54.7817 23.188 54.7818C23.1444 54.7827 23.1009 54.7871 23.0579 54.7949C23.046 54.7969 23.0336 54.7974 23.0219 54.8C22.9758 54.8101 22.9307 54.8241 22.887 54.8419C22.8793 54.845 22.8711 54.8469 22.8634 54.8502C22.8203 54.8692 22.7788 54.8917 22.7394 54.9176C22.7325 54.922 22.7251 54.9254 22.7184 54.93C22.6822 54.9555 22.648 54.9837 22.6161 55.0145C22.6079 55.0222 22.5988 55.0288 22.5908 55.0369C22.564 55.0653 22.5391 55.0955 22.5163 55.1273C22.5061 55.1409 22.4948 55.1535 22.4854 55.1678C22.4683 55.1954 22.4528 55.224 22.4389 55.2534C22.4278 55.2754 22.4157 55.2966 22.4064 55.3196C22.3964 55.3447 22.3898 55.3715 22.3821 55.3979C22.3728 55.4267 22.3651 55.4561 22.3589 55.4858C22.3578 55.4921 22.3552 55.4977 22.3541 55.504C22.3504 55.5274 22.3519 55.5502 22.3501 55.5734C22.3484 55.5956 22.3435 55.6169 22.3435 55.6395C22.3435 58.0812 22.4253 59.6663 21.1108 60.8035C20.9392 60.9527 20.8337 61.1639 20.8175 61.3908C20.8012 61.6177 20.8755 61.8418 21.024 62.0139C21.1726 62.1861 21.3833 62.2922 21.6099 62.3091C21.8365 62.3259 22.0605 62.2521 22.2328 62.1039C23.8886 60.6711 23.8897 58.6921 24.0313 56.5261C24.5678 56.5 25.0952 56.3773 25.5883 56.1638C26.0102 56.6933 26.546 57.1207 27.1557 57.4142C27.7655 57.7077 28.4335 57.8597 29.11 57.8589C30.2442 57.8502 31.3441 57.4686 32.2405 56.7729C32.7304 56.395 33.1408 55.9237 33.448 55.3863C34.3151 56.0684 35.3851 56.4406 36.4879 56.4436C37.3612 56.451 38.2173 56.2003 38.9491 55.7229C39.8818 55.1005 40.5501 54.153 40.824 53.0648C41.6892 53.0531 42.5325 52.7909 43.252 52.3097C44.0722 51.7604 44.6905 50.9577 45.0128 50.024C45.3351 49.0903 45.3437 48.0767 45.0373 47.1376C45.2918 47.0297 45.5356 46.8982 45.7655 46.7446C46.4503 46.2898 46.9976 45.656 47.348 44.9118C47.6984 44.1677 47.8385 43.3417 47.7531 42.5234C47.6677 41.7052 47.3601 40.926 46.8637 40.2704C46.3673 39.6148 45.7009 39.1079 44.9371 38.8046Z" fill="#365466"/>
<path d="M44.9371 38.8046C45.2439 37.9875 45.3072 37.0988 45.1192 36.2464C44.9312 35.394 44.5 34.6146 43.878 34.0029C43.2561 33.3911 42.47 32.9733 41.6154 32.8002C40.7608 32.6271 39.8744 32.7062 39.0639 33.0279C38.8427 32.3794 38.4769 31.7899 37.9944 31.304C37.5119 30.8181 36.9252 30.4485 36.2788 30.2233C35.6325 29.9981 34.9434 29.9231 34.2638 30.004C33.5842 30.085 32.9319 30.3198 32.3564 30.6906C31.526 29.937 30.4461 29.5184 29.3254 29.5156C28.0512 29.5368 26.8322 30.0398 25.9131 30.9236C25.3201 30.6441 24.6745 30.4939 24.0191 30.4829C23.3637 30.472 22.7134 30.6005 22.1114 30.86C21.0926 31.3276 20.2836 32.1574 19.8415 33.1885C19.1414 33.0877 18.4274 33.1531 17.7571 33.3795C17.0869 33.606 16.4792 33.987 15.9833 34.492C15.4873 34.997 15.1169 35.6116 14.902 36.2864C14.6872 36.9611 14.6338 37.6769 14.7463 38.3761C14.4779 38.4423 14.2164 38.5337 13.9653 38.6492C13.1617 39.0169 12.4839 39.613 12.0161 40.3634C11.5484 41.1138 11.3114 41.9853 11.3346 42.8696C11.3578 43.7538 11.6402 44.6117 12.1466 45.3364C12.6531 46.0612 13.3613 46.6209 14.183 46.9458C14.116 47.1188 14.0483 47.2946 13.971 47.469C13.7082 48.0474 13.5944 48.6825 13.64 49.3163C13.6856 49.9501 13.8891 50.5623 14.232 51.097C14.5778 51.6034 15.0352 52.0234 15.569 52.3244C16.1028 52.6255 16.6986 52.7997 17.3103 52.8334C18.4146 54.5584 19.2812 57.44 17.8874 58.882C17.8087 58.963 17.7467 59.0587 17.705 59.1637C17.6633 59.2688 17.6427 59.381 17.6443 59.494C17.646 59.607 17.67 59.7185 17.7148 59.8222C17.7596 59.9259 17.8245 60.0198 17.9056 60.0984C17.9867 60.177 18.0825 60.2387 18.1875 60.2802C18.2925 60.3216 18.4047 60.3419 18.5175 60.3399C18.6304 60.3379 18.7417 60.3136 18.8452 60.2684C18.9486 60.2233 19.0422 60.1581 19.1205 60.0767C21.4282 57.6897 19.9672 53.577 18.4944 51.5225L18.4898 51.5158C18.4852 51.5094 18.4806 51.5019 18.4761 51.4955C18.464 51.4789 18.449 51.466 18.436 51.4504C18.4164 51.4258 18.3955 51.4023 18.3734 51.38C18.3532 51.3606 18.3311 51.3443 18.3094 51.3272C18.2876 51.31 18.2664 51.2924 18.243 51.2774C18.2188 51.2626 18.1938 51.249 18.1683 51.2368C18.1441 51.2244 18.1205 51.2117 18.0951 51.2016C18.0674 51.1914 18.0393 51.1827 18.0108 51.1754C17.986 51.1685 17.9618 51.1607 17.9361 51.1559C17.9016 51.1503 17.8669 51.1468 17.832 51.1454C17.8148 51.1444 17.7985 51.1403 17.781 51.1403C17.375 51.1699 16.9682 51.0954 16.599 50.9239C16.2298 50.7523 15.9103 50.4894 15.6708 50.16C15.4843 49.8651 15.3746 49.5281 15.3517 49.1798C15.3287 48.8315 15.3934 48.483 15.5396 48.1662C15.6306 47.9611 15.7108 47.7547 15.7893 47.5517C15.9126 47.1389 16.1151 46.7542 16.3856 46.4191C16.5454 46.2573 16.6347 46.0387 16.6338 45.8111C16.6328 45.5835 16.5417 45.3656 16.3805 45.2052C16.2193 45.0448 16.001 44.9549 15.7737 44.9554C15.5464 44.9559 15.3286 45.0466 15.168 45.2077C15.1038 45.2724 15.0438 45.3386 14.9879 45.4063C14.4518 45.2353 13.9799 44.9057 13.6346 44.4609C13.2892 44.0162 13.0865 43.4771 13.0531 42.9148C13.0197 42.3524 13.1572 41.7931 13.4475 41.3106C13.7378 40.828 14.1673 40.4448 14.6795 40.2113C15.0435 40.0434 15.4405 39.9592 15.8413 39.9647C15.9833 39.9613 16.1226 39.9246 16.248 39.8576C16.3733 39.7906 16.4812 39.6951 16.563 39.5788C16.6418 39.4595 16.6895 39.3223 16.7018 39.1798C16.7142 39.0374 16.6908 38.894 16.6338 38.7629C16.4188 38.2637 16.3539 37.7125 16.447 37.1769C16.5402 36.6413 16.7873 36.1446 17.1582 35.7475C17.529 35.3504 18.0075 35.0701 18.535 34.9412C19.0625 34.8122 19.6161 34.84 20.1281 35.0212C20.2433 35.0619 20.3659 35.0775 20.4876 35.067C20.6094 35.0564 20.7275 35.02 20.834 34.96C20.9405 34.9001 21.033 34.8181 21.1053 34.7195C21.1776 34.6209 21.2281 34.5079 21.2533 34.3882C21.3409 33.9598 21.5289 33.5584 21.8017 33.2169C22.0745 32.8754 22.4244 32.6036 22.8226 32.4238C23.2776 32.2365 23.7718 32.1648 24.2612 32.2151C24.7506 32.2654 25.22 32.4361 25.6275 32.712C25.8189 32.8352 26.0513 32.8773 26.2737 32.829C26.4961 32.7808 26.6902 32.646 26.8134 32.4544C26.8183 32.4469 26.8208 32.4387 26.8253 32.4311C26.8506 32.4105 26.8747 32.3885 26.8974 32.3651C27.204 32.0211 27.5774 31.7433 27.9949 31.5488C28.4124 31.3543 28.8651 31.2471 29.3254 31.2338C29.7628 31.2323 30.1944 31.3344 30.5848 31.5318C30.9752 31.7292 31.3134 32.0164 31.5718 32.3697C31.6445 32.468 31.7373 32.5495 31.844 32.609C31.9507 32.6685 32.0688 32.7044 32.1905 32.7145C32.3122 32.7246 32.4347 32.7086 32.5497 32.6675C32.6647 32.6264 32.7696 32.5612 32.8575 32.4762C33.2455 32.1 33.7344 31.8448 34.2647 31.7417C34.795 31.6386 35.3438 31.6921 35.8443 31.8956C36.3448 32.0991 36.7754 32.4439 37.0837 32.8881C37.3919 33.3322 37.5646 33.8564 37.5807 34.397C37.5851 34.5569 37.6339 34.7123 37.7218 34.8459C37.8097 34.9794 37.9331 35.0858 38.078 35.1529C38.223 35.2201 38.3838 35.2454 38.5424 35.2259C38.701 35.2065 38.8509 35.1432 38.9755 35.043C39.4698 34.6432 40.0867 34.4263 40.7222 34.4289C41.2363 34.4288 41.7404 34.5711 42.1788 34.8399C42.6172 35.1087 42.9729 35.4936 43.2065 35.9521C43.4401 36.4106 43.5425 36.9248 43.5025 37.4379C43.4625 37.9511 43.2815 38.4431 42.9797 38.8598C42.9688 38.875 42.9621 38.8918 42.9523 38.9074C42.9385 38.9293 42.9255 38.9513 42.9137 38.9745C42.9 39.0017 42.8878 39.0295 42.8771 39.058C42.8679 39.0822 42.8595 39.1066 42.8525 39.1319C42.8442 39.1621 42.8377 39.1927 42.8328 39.2236C42.8304 39.2385 42.8251 39.2523 42.8234 39.2675C42.8222 39.2786 42.8239 39.2893 42.8231 39.3003C42.8213 39.3301 42.821 39.3598 42.8223 39.3896C42.8232 39.4175 42.8242 39.4451 42.8278 39.4724C42.8312 39.4986 42.837 39.5241 42.8428 39.5499C42.8487 39.5786 42.8562 39.6069 42.8651 39.6348C42.8733 39.6594 42.884 39.6829 42.8944 39.7068C42.9056 39.7333 42.9181 39.7591 42.9318 39.7843C42.945 39.8077 42.9605 39.8296 42.976 39.8519C42.992 39.8754 43.0091 39.8982 43.0274 39.92C43.0443 39.9398 43.0631 39.9581 43.0822 39.9765C43.104 39.9981 43.1271 40.0185 43.1512 40.0376C43.1598 40.0443 43.1664 40.0526 43.1754 40.0591C43.1829 40.0645 43.1918 40.066 43.1994 40.0711C43.2659 40.1176 43.3387 40.1542 43.4156 40.1798C43.4189 40.1809 43.4224 40.181 43.4257 40.182C43.4768 40.198 43.5294 40.2093 43.5826 40.2155C44.1513 40.2793 44.6866 40.5168 45.1158 40.8957C45.545 41.2745 45.8474 41.7765 45.9819 42.3333C46.1163 42.8902 46.0764 43.475 45.8675 44.0083C45.6585 44.5417 45.2907 44.9977 44.814 45.3146C44.4804 45.5368 44.1021 45.6828 43.7058 45.7421C43.5646 45.7636 43.431 45.8202 43.3171 45.9066C43.2033 45.993 43.1128 46.1066 43.0539 46.2369C42.995 46.3672 42.9696 46.5101 42.9799 46.6528C42.9902 46.7955 43.0359 46.9333 43.1129 47.0537C43.404 47.5127 43.555 48.0468 43.5475 48.5904C43.5399 49.1341 43.3741 49.6637 43.0704 50.1144C42.7667 50.5651 42.3383 50.9174 41.8376 51.128C41.3369 51.3386 40.7858 51.3984 40.2517 51.3001C40.1315 51.2781 40.0079 51.2822 39.8894 51.3119C39.7708 51.3416 39.66 51.3963 39.5643 51.4724C39.4685 51.5484 39.3901 51.644 39.3342 51.7528C39.2783 51.8616 39.2463 51.9811 39.2403 52.1033C39.2216 52.5402 39.0994 52.9664 38.8838 53.3468C38.6683 53.7271 38.3655 54.0507 38.0005 54.2909C37.3556 54.6724 36.5938 54.8052 35.858 54.6642C35.1223 54.5232 34.4633 54.1181 34.0048 53.5251C34.0024 53.3053 33.9158 53.0949 33.7628 52.9372C33.6099 52.7796 33.4022 52.6868 33.1829 52.6781C32.9635 52.6694 32.7492 52.7455 32.5843 52.8905C32.4193 53.0355 32.3164 53.2385 32.2967 53.4574C32.2584 53.8431 32.14 54.2166 31.9491 54.5539C31.7582 54.8911 31.4991 55.1848 31.1882 55.4159C30.8343 55.6918 30.4293 55.8949 29.9967 56.0134C29.564 56.1319 29.1122 56.1635 28.6672 56.1064C28.235 56.0387 27.8249 55.8696 27.4704 55.6129C27.1159 55.3562 26.8271 55.0192 26.6276 54.6294C26.5713 54.521 26.4926 54.4258 26.3966 54.3503C26.3006 54.2747 26.1896 54.2206 26.0711 54.1914C25.9525 54.1623 25.8292 54.1588 25.7092 54.1813C25.5892 54.2037 25.4753 54.2515 25.3753 54.3215C24.7826 54.7373 24.0517 54.9057 23.3371 54.7913C23.3118 54.7871 23.2871 54.7885 23.262 54.7865C23.2417 54.7851 23.2223 54.7804 23.2016 54.7804C23.1969 54.7804 23.1927 54.7817 23.188 54.7818C23.1444 54.7827 23.1009 54.7871 23.0579 54.7949C23.046 54.7969 23.0336 54.7974 23.0219 54.8C22.9758 54.8101 22.9307 54.8241 22.887 54.8419C22.8793 54.845 22.8711 54.8469 22.8634 54.8502C22.8203 54.8692 22.7788 54.8917 22.7394 54.9176C22.7325 54.922 22.7251 54.9254 22.7184 54.93C22.6822 54.9555 22.648 54.9837 22.6161 55.0145C22.6079 55.0222 22.5988 55.0288 22.5908 55.0369C22.564 55.0653 22.5391 55.0955 22.5163 55.1273C22.5061 55.1409 22.4948 55.1535 22.4854 55.1678C22.4683 55.1954 22.4528 55.224 22.4389 55.2534C22.4278 55.2754 22.4157 55.2966 22.4064 55.3196C22.3964 55.3447 22.3898 55.3715 22.3821 55.3979C22.3728 55.4267 22.3651 55.4561 22.3589 55.4858C22.3578 55.4921 22.3552 55.4977 22.3541 55.504C22.3504 55.5274 22.3519 55.5502 22.3501 55.5734C22.3484 55.5956 22.3435 55.6169 22.3435 55.6395C22.3435 58.0812 22.4253 59.6663 21.1108 60.8035C20.9392 60.9527 20.8337 61.1639 20.8175 61.3908C20.8012 61.6177 20.8755 61.8418 21.024 62.0139C21.1726 62.1861 21.3833 62.2922 21.6099 62.3091C21.8365 62.3259 22.0605 62.2521 22.2328 62.1039C23.8886 60.6711 23.8897 58.6921 24.0313 56.5261C24.5678 56.5 25.0952 56.3773 25.5883 56.1638C26.0102 56.6933 26.546 57.1207 27.1557 57.4142C27.7655 57.7077 28.4335 57.8597 29.11 57.8589C30.2442 57.8502 31.3441 57.4686 32.2405 56.7729C32.7304 56.395 33.1408 55.9237 33.448 55.3863C34.3151 56.0684 35.3851 56.4406 36.4879 56.4436C37.3612 56.451 38.2173 56.2003 38.9491 55.7229C39.8818 55.1005 40.5501 54.153 40.824 53.0648C41.6892 53.0531 42.5325 52.7909 43.252 52.3097C44.0722 51.7604 44.6905 50.9577 45.0128 50.024C45.3351 49.0903 45.3437 48.0767 45.0373 47.1376C45.2918 47.0297 45.5356 46.8982 45.7655 46.7446C46.4503 46.2898 46.9976 45.656 47.348 44.9118C47.6984 44.1677 47.8385 43.3417 47.7531 42.5234C47.6677 41.7052 47.3601 40.926 46.8637 40.2704C46.3673 39.6148 45.7009 39.1079 44.9371 38.8046Z" stroke="#365466" stroke-width="1.3" mask="url(#path-2-outside-2_289_32)"/>
<path d="M119.878 28.652C123.55 28.652 126.502 29.786 128.734 32.054C131.002 34.286 132.136 37.418 132.136 41.45V59H124.576V42.476C124.576 40.136 123.982 38.354 122.794 37.13C121.606 35.87 119.986 35.24 117.934 35.24C115.882 35.24 114.244 35.87 113.02 37.13C111.832 38.354 111.238 40.136 111.238 42.476V59H103.678V42.476C103.678 40.136 103.084 38.354 101.896 37.13C100.708 35.87 99.088 35.24 97.036 35.24C94.948 35.24 93.292 35.87 92.068 37.13C90.88 38.354 90.286 40.136 90.286 42.476V59H82.726V29.084H90.286V32.702C91.258 31.442 92.5 30.452 94.012 29.732C95.56 29.012 97.252 28.652 99.088 28.652C101.428 28.652 103.516 29.156 105.352 30.164C107.188 31.136 108.61 32.54 109.618 34.376C110.59 32.648 111.994 31.262 113.83 30.218C115.702 29.174 117.718 28.652 119.878 28.652ZM140.984 25.52C139.652 25.52 138.536 25.106 137.636 24.278C136.772 23.414 136.34 22.352 136.34 21.092C136.34 19.832 136.772 18.788 137.636 17.96C138.536 17.096 139.652 16.664 140.984 16.664C142.316 16.664 143.414 17.096 144.278 17.96C145.178 18.788 145.628 19.832 145.628 21.092C145.628 22.352 145.178 23.414 144.278 24.278C143.414 25.106 142.316 25.52 140.984 25.52ZM144.71 29.084V59H137.15V29.084H144.71ZM166.597 28.652C170.161 28.652 173.041 29.786 175.237 32.054C177.433 34.286 178.531 37.418 178.531 41.45V59H170.971V42.476C170.971 40.1 170.377 38.282 169.189 37.022C168.001 35.726 166.381 35.078 164.329 35.078C162.241 35.078 160.585 35.726 159.361 37.022C158.173 38.282 157.579 40.1 157.579 42.476V59H150.019V29.084H157.579V32.81C158.587 31.514 159.865 30.506 161.413 29.786C162.997 29.03 164.725 28.652 166.597 28.652ZM181.616 43.934C181.616 40.91 182.21 38.228 183.398 35.888C184.622 33.548 186.278 31.748 188.366 30.488C190.454 29.228 192.776 28.598 195.332 28.598C197.276 28.598 199.13 29.03 200.894 29.894C202.658 30.722 204.062 31.838 205.106 33.242V19.04H212.774V59H205.106V54.572C204.17 56.048 202.856 57.236 201.164 58.136C199.472 59.036 197.51 59.486 195.278 59.486C192.758 59.486 190.454 58.838 188.366 57.542C186.278 56.246 184.622 54.428 183.398 52.088C182.21 49.712 181.616 46.994 181.616 43.934ZM205.16 44.042C205.16 42.206 204.8 40.64 204.08 39.344C203.36 38.012 202.388 37.004 201.164 36.32C199.94 35.6 198.626 35.24 197.222 35.24C195.818 35.24 194.522 35.582 193.334 36.266C192.146 36.95 191.174 37.958 190.418 39.29C189.698 40.586 189.338 42.134 189.338 43.934C189.338 45.734 189.698 47.318 190.418 48.686C191.174 50.018 192.146 51.044 193.334 51.764C194.558 52.484 195.854 52.844 197.222 52.844C198.626 52.844 199.94 52.502 201.164 51.818C202.388 51.098 203.36 50.09 204.08 48.794C204.8 47.462 205.16 45.878 205.16 44.042ZM261.63 29.084L252.882 59H244.728L239.274 38.102L233.82 59H225.612L216.81 29.084H224.478L229.77 51.872L235.494 29.084H243.486L249.102 51.818L254.394 29.084H261.63ZM261.617 43.934C261.617 40.91 262.211 38.228 263.399 35.888C264.623 33.548 266.261 31.748 268.313 30.488C270.401 29.228 272.723 28.598 275.279 28.598C277.511 28.598 279.455 29.048 281.111 29.948C282.803 30.848 284.153 31.982 285.161 33.35V29.084H292.775V59H285.161V54.626C284.189 56.03 282.839 57.2 281.111 58.136C279.419 59.036 277.457 59.486 275.225 59.486C272.705 59.486 270.401 58.838 268.313 57.542C266.261 56.246 264.623 54.428 263.399 52.088C262.211 49.712 261.617 46.994 261.617 43.934ZM285.161 44.042C285.161 42.206 284.801 40.64 284.081 39.344C283.361 38.012 282.389 37.004 281.165 36.32C279.941 35.6 278.627 35.24 277.223 35.24C275.819 35.24 274.523 35.582 273.335 36.266C272.147 36.95 271.175 37.958 270.419 39.29C269.699 40.586 269.339 42.134 269.339 43.934C269.339 45.734 269.699 47.318 270.419 48.686C271.175 50.018 272.147 51.044 273.335 51.764C274.559 52.484 275.855 52.844 277.223 52.844C278.627 52.844 279.941 52.502 281.165 51.818C282.389 51.098 283.361 50.09 284.081 48.794C284.801 47.462 285.161 45.878 285.161 44.042ZM327.698 29.084L309.176 73.148H301.13L307.61 58.244L295.622 29.084H304.1L311.822 49.982L319.652 29.084H327.698ZM341.062 59.486C338.614 59.486 336.418 59.054 334.474 58.19C332.53 57.29 330.982 56.084 329.83 54.572C328.714 53.06 328.102 51.386 327.994 49.55H335.608C335.752 50.702 336.31 51.656 337.282 52.412C338.29 53.168 339.532 53.546 341.008 53.546C342.448 53.546 343.564 53.258 344.356 52.682C345.184 52.106 345.598 51.368 345.598 50.468C345.598 49.496 345.094 48.776 344.086 48.308C343.114 47.804 341.548 47.264 339.388 46.688C337.156 46.148 335.32 45.59 333.88 45.014C332.476 44.438 331.252 43.556 330.208 42.368C329.2 41.18 328.696 39.578 328.696 37.562C328.696 35.906 329.164 34.394 330.1 33.026C331.072 31.658 332.44 30.578 334.204 29.786C336.004 28.994 338.11 28.598 340.522 28.598C344.086 28.598 346.93 29.498 349.054 31.298C351.178 33.062 352.348 35.456 352.564 38.48H345.328C345.22 37.292 344.716 36.356 343.816 35.672C342.952 34.952 341.782 34.592 340.306 34.592C338.938 34.592 337.876 34.844 337.12 35.348C336.4 35.852 336.04 36.554 336.04 37.454C336.04 38.462 336.544 39.236 337.552 39.776C338.56 40.28 340.126 40.802 342.25 41.342C344.41 41.882 346.192 42.44 347.596 43.016C349 43.592 350.206 44.492 351.214 45.716C352.258 46.904 352.798 48.488 352.834 50.468C352.834 52.196 352.348 53.744 351.376 55.112C350.44 56.48 349.072 57.56 347.272 58.352C345.508 59.108 343.438 59.486 341.062 59.486Z" fill="#73CEA7"/>
<path d="M88.04 69.1C89.52 69.1 90.8133 69.3867 91.92 69.96C93.04 70.52 93.9 71.3333 94.5 72.4C95.1133 73.4533 95.42 74.6867 95.42 76.1C95.42 77.5133 95.1133 78.74 94.5 79.78C93.9 80.82 93.04 81.62 91.92 82.18C90.8133 82.7267 89.52 83 88.04 83H83.5V69.1H88.04ZM88.04 81.14C89.6667 81.14 90.9133 80.7 91.78 79.82C92.6467 78.94 93.08 77.7 93.08 76.1C93.08 74.4867 92.6467 73.2267 91.78 72.32C90.9133 71.4133 89.6667 70.96 88.04 70.96H85.78V81.14H88.04ZM96.5197 77.44C96.5197 76.3333 96.7464 75.3533 97.1997 74.5C97.6664 73.6467 98.293 72.9867 99.0797 72.52C99.8797 72.04 100.76 71.8 101.72 71.8C102.586 71.8 103.34 71.9733 103.98 72.32C104.633 72.6533 105.153 73.0733 105.54 73.58V71.98H107.84V83H105.54V81.36C105.153 81.88 104.626 82.3133 103.96 82.66C103.293 83.0067 102.533 83.18 101.68 83.18C100.733 83.18 99.8664 82.94 99.0797 82.46C98.293 81.9667 97.6664 81.2867 97.1997 80.42C96.7464 79.54 96.5197 78.5467 96.5197 77.44ZM105.54 77.48C105.54 76.72 105.38 76.06 105.06 75.5C104.753 74.94 104.346 74.5133 103.84 74.22C103.333 73.9267 102.786 73.78 102.2 73.78C101.613 73.78 101.066 73.9267 100.56 74.22C100.053 74.5 99.6397 74.92 99.3197 75.48C99.013 76.0267 98.8597 76.68 98.8597 77.44C98.8597 78.2 99.013 78.8667 99.3197 79.44C99.6397 80.0133 100.053 80.4533 100.56 80.76C101.08 81.0533 101.626 81.2 102.2 81.2C102.786 81.2 103.333 81.0533 103.84 80.76C104.346 80.4667 104.753 80.04 105.06 79.48C105.38 78.9067 105.54 78.24 105.54 77.48ZM112.714 73.58C113.048 73.02 113.488 72.5867 114.034 72.28C114.594 71.96 115.254 71.8 116.014 71.8V74.16H115.434C114.541 74.16 113.861 74.3867 113.394 74.84C112.941 75.2933 112.714 76.08 112.714 77.2V83H110.434V71.98H112.714V73.58ZM118.87 70.52C118.457 70.52 118.11 70.38 117.83 70.1C117.55 69.82 117.41 69.4733 117.41 69.06C117.41 68.6467 117.55 68.3 117.83 68.02C118.11 67.74 118.457 67.6 118.87 67.6C119.27 67.6 119.61 67.74 119.89 68.02C120.17 68.3 120.31 68.6467 120.31 69.06C120.31 69.4733 120.17 69.82 119.89 70.1C119.61 70.38 119.27 70.52 118.87 70.52ZM119.99 71.98V83H117.71V71.98H119.99ZM132.564 71.98V83H130.284V81.7C129.924 82.1533 129.45 82.5133 128.864 82.78C128.29 83.0333 127.677 83.16 127.024 83.16C126.157 83.16 125.377 82.98 124.684 82.62C124.004 82.26 123.464 81.7267 123.064 81.02C122.677 80.3133 122.484 79.46 122.484 78.46V71.98H124.744V78.12C124.744 79.1067 124.99 79.8667 125.484 80.4C125.977 80.92 126.65 81.18 127.504 81.18C128.357 81.18 129.03 80.92 129.524 80.4C130.03 79.8667 130.284 79.1067 130.284 78.12V71.98H132.564ZM139.172 83.18C138.305 83.18 137.525 83.0267 136.832 82.72C136.152 82.4 135.612 81.9733 135.212 81.44C134.812 80.8933 134.599 80.2867 134.572 79.62H136.932C136.972 80.0867 137.192 80.48 137.592 80.8C138.005 81.1067 138.519 81.26 139.132 81.26C139.772 81.26 140.265 81.14 140.612 80.9C140.972 80.6467 141.152 80.3267 141.152 79.94C141.152 79.5267 140.952 79.22 140.552 79.02C140.165 78.82 139.545 78.6 138.692 78.36C137.865 78.1333 137.192 77.9133 136.672 77.7C136.152 77.4867 135.699 77.16 135.312 76.72C134.939 76.28 134.752 75.7 134.752 74.98C134.752 74.3933 134.925 73.86 135.272 73.38C135.619 72.8867 136.112 72.5 136.752 72.22C137.405 71.94 138.152 71.8 138.992 71.8C140.245 71.8 141.252 72.12 142.012 72.76C142.785 73.3867 143.199 74.2467 143.252 75.34H140.972C140.932 74.8467 140.732 74.4533 140.372 74.16C140.012 73.8667 139.525 73.72 138.912 73.72C138.312 73.72 137.852 73.8333 137.532 74.06C137.212 74.2867 137.052 74.5867 137.052 74.96C137.052 75.2533 137.159 75.5 137.372 75.7C137.585 75.9 137.845 76.06 138.152 76.18C138.459 76.2867 138.912 76.4267 139.512 76.6C140.312 76.8133 140.965 77.0333 141.472 77.26C141.992 77.4733 142.439 77.7933 142.812 78.22C143.185 78.6467 143.379 79.2133 143.392 79.92C143.392 80.5467 143.219 81.1067 142.872 81.6C142.525 82.0933 142.032 82.48 141.392 82.76C140.765 83.04 140.025 83.18 139.172 83.18ZM147.475 81.14H152.475V83H144.835V81.14L149.855 73.84H144.835V71.98H152.475V73.84L147.475 81.14ZM166.465 81.26V83H159.485V77.16L157.945 77.66V75.94L159.485 75.44V69.1H161.785V74.68L163.625 74.08V75.82L161.785 76.42V81.26H166.465ZM172.532 83.18C171.492 83.18 170.552 82.9467 169.712 82.48C168.872 82 168.212 81.3333 167.732 80.48C167.252 79.6133 167.012 78.6133 167.012 77.48C167.012 76.36 167.258 75.3667 167.752 74.5C168.245 73.6333 168.918 72.9667 169.772 72.5C170.625 72.0333 171.578 71.8 172.632 71.8C173.685 71.8 174.638 72.0333 175.492 72.5C176.345 72.9667 177.018 73.6333 177.512 74.5C178.005 75.3667 178.252 76.36 178.252 77.48C178.252 78.6 177.998 79.5933 177.492 80.46C176.985 81.3267 176.292 82 175.412 82.48C174.545 82.9467 173.585 83.18 172.532 83.18ZM172.532 81.2C173.118 81.2 173.665 81.06 174.172 80.78C174.692 80.5 175.112 80.08 175.432 79.52C175.752 78.96 175.912 78.28 175.912 77.48C175.912 76.68 175.758 76.0067 175.452 75.46C175.145 74.9 174.738 74.48 174.232 74.2C173.725 73.92 173.178 73.78 172.592 73.78C172.005 73.78 171.458 73.92 170.952 74.2C170.458 74.48 170.065 74.9 169.772 75.46C169.478 76.0067 169.332 76.68 169.332 77.48C169.332 78.6667 169.632 79.5867 170.232 80.24C170.845 80.88 171.612 81.2 172.532 81.2ZM194.905 71.98L191.485 83H189.085L186.865 74.86L184.645 83H182.245L178.805 71.98H181.125L183.425 80.84L185.765 71.98H188.145L190.385 80.8L192.665 71.98H194.905ZM195.449 77.48C195.449 76.3467 195.676 75.3533 196.129 74.5C196.596 73.6333 197.236 72.9667 198.049 72.5C198.863 72.0333 199.796 71.8 200.849 71.8C202.183 71.8 203.283 72.12 204.149 72.76C205.029 73.3867 205.623 74.2867 205.929 75.46H203.469C203.269 74.9133 202.949 74.4867 202.509 74.18C202.069 73.8733 201.516 73.72 200.849 73.72C199.916 73.72 199.169 74.0533 198.609 74.72C198.063 75.3733 197.789 76.2933 197.789 77.48C197.789 78.6667 198.063 79.5933 198.609 80.26C199.169 80.9267 199.916 81.26 200.849 81.26C202.169 81.26 203.043 80.68 203.469 79.52H205.929C205.609 80.64 205.009 81.5333 204.129 82.2C203.249 82.8533 202.156 83.18 200.849 83.18C199.796 83.18 198.863 82.9467 198.049 82.48C197.236 82 196.596 81.3333 196.129 80.48C195.676 79.6133 195.449 78.6133 195.449 77.48ZM209.822 81.14H214.822V83H207.182V81.14L212.202 73.84H207.182V71.98H214.822V73.84L209.822 81.14ZM226.736 71.98L219.976 88.18H217.616L219.856 82.82L215.516 71.98H218.056L221.156 80.38L224.376 71.98H226.736ZM233.616 71.8C234.483 71.8 235.256 71.98 235.936 72.34C236.63 72.7 237.17 73.2333 237.556 73.94C237.943 74.6467 238.136 75.5 238.136 76.5V83H235.876V76.84C235.876 75.8533 235.63 75.1 235.136 74.58C234.643 74.0467 233.97 73.78 233.116 73.78C232.263 73.78 231.583 74.0467 231.076 74.58C230.583 75.1 230.336 75.8533 230.336 76.84V83H228.056V71.98H230.336V73.24C230.71 72.7867 231.183 72.4333 231.756 72.18C232.343 71.9267 232.963 71.8 233.616 71.8ZM245.425 83.18C244.385 83.18 243.445 82.9467 242.605 82.48C241.765 82 241.105 81.3333 240.625 80.48C240.145 79.6133 239.905 78.6133 239.905 77.48C239.905 76.36 240.151 75.3667 240.645 74.5C241.138 73.6333 241.811 72.9667 242.665 72.5C243.518 72.0333 244.471 71.8 245.525 71.8C246.578 71.8 247.531 72.0333 248.385 72.5C249.238 72.9667 249.911 73.6333 250.405 74.5C250.898 75.3667 251.145 76.36 251.145 77.48C251.145 78.6 250.891 79.5933 250.385 80.46C249.878 81.3267 249.185 82 248.305 82.48C247.438 82.9467 246.478 83.18 245.425 83.18ZM245.425 81.2C246.011 81.2 246.558 81.06 247.065 80.78C247.585 80.5 248.005 80.08 248.325 79.52C248.645 78.96 248.805 78.28 248.805 77.48C248.805 76.68 248.651 76.0067 248.345 75.46C248.038 74.9 247.631 74.48 247.125 74.2C246.618 73.92 246.071 73.78 245.485 73.78C244.898 73.78 244.351 73.92 243.845 74.2C243.351 74.48 242.958 74.9 242.665 75.46C242.371 76.0067 242.225 76.68 242.225 77.48C242.225 78.6667 242.525 79.5867 243.125 80.24C243.738 80.88 244.505 81.2 245.425 81.2ZM267.798 71.98L264.378 83H261.978L259.758 74.86L257.538 83H255.138L251.698 71.98H254.018L256.318 80.84L258.658 71.98H261.038L263.278 80.8L265.558 71.98H267.798ZM273.102 83.18C272.236 83.18 271.456 83.0267 270.762 82.72C270.082 82.4 269.542 81.9733 269.142 81.44C268.742 80.8933 268.529 80.2867 268.502 79.62H270.862C270.902 80.0867 271.122 80.48 271.522 80.8C271.936 81.1067 272.449 81.26 273.062 81.26C273.702 81.26 274.196 81.14 274.542 80.9C274.902 80.6467 275.082 80.3267 275.082 79.94C275.082 79.5267 274.882 79.22 274.482 79.02C274.096 78.82 273.476 78.6 272.622 78.36C271.796 78.1333 271.122 77.9133 270.602 77.7C270.082 77.4867 269.629 77.16 269.242 76.72C268.869 76.28 268.682 75.7 268.682 74.98C268.682 74.3933 268.856 73.86 269.202 73.38C269.549 72.8867 270.042 72.5 270.682 72.22C271.336 71.94 272.082 71.8 272.922 71.8C274.176 71.8 275.182 72.12 275.942 72.76C276.716 73.3867 277.129 74.2467 277.182 75.34H274.902C274.862 74.8467 274.662 74.4533 274.302 74.16C273.942 73.8667 273.456 73.72 272.842 73.72C272.242 73.72 271.782 73.8333 271.462 74.06C271.142 74.2867 270.982 74.5867 270.982 74.96C270.982 75.2533 271.089 75.5 271.302 75.7C271.516 75.9 271.776 76.06 272.082 76.18C272.389 76.2867 272.842 76.4267 273.442 76.6C274.242 76.8133 274.896 77.0333 275.402 77.26C275.922 77.4733 276.369 77.7933 276.742 78.22C277.116 78.6467 277.309 79.2133 277.322 79.92C277.322 80.5467 277.149 81.1067 276.802 81.6C276.456 82.0933 275.962 82.48 275.322 82.76C274.696 83.04 273.956 83.18 273.102 83.18ZM283.746 77.5L288.826 83H285.746L281.666 78.26V83H279.386V68.2H281.666V76.8L285.666 71.98H288.826L283.746 77.5ZM291.22 70.52C290.807 70.52 290.46 70.38 290.18 70.1C289.9 69.82 289.76 69.4733 289.76 69.06C289.76 68.6467 289.9 68.3 290.18 68.02C290.46 67.74 290.807 67.6 291.22 67.6C291.62 67.6 291.96 67.74 292.24 68.02C292.52 68.3 292.66 68.6467 292.66 69.06C292.66 69.4733 292.52 69.82 292.24 70.1C291.96 70.38 291.62 70.52 291.22 70.52ZM292.34 71.98V83H290.06V71.98H292.34Z" fill="#365466"/>
</svg>
